<svg viewBox="0 0 128 128" xmlns="http://www.w3.org/2000/svg">
  <!-- Premium Minimal Vehicle Icon - Sleek Side Profile -->
  <!-- Main body - elegant curves -->
  <path d="M 24 64 L 28 52 Q 30 48 36 48 L 88 48 Q 94 48 96 52 L 100 64 Q 100 68 98 70 L 98 78 Q 98 80 96 80 L 92 80 Q 90 80 90 78 L 90 76 L 34 76 L 34 78 Q 34 80 32 80 L 28 80 Q 26 80 26 78 L 26 70 Q 24 68 24 64 Z" fill="none" stroke="white" stroke-width="2.8" stroke-linejoin="round" stroke-linecap="round"/>
  
  <!-- Windows - minimalist -->
  <path d="M 40 56 Q 42 52 50 52 L 70 52 Q 76 52 78 56 L 78 68 Q 76 68 74 68 L 44 68 Q 42 68 40 66 Z" fill="white" opacity="0.25" stroke="none" stroke-linejoin="round"/>
  
  <!-- Front wheel -->
  <circle cx="32" cy="80" r="6.5" fill="none" stroke="white" stroke-width="2"/>
  <circle cx="32" cy="80" r="3" fill="white" opacity="0.6"/>
  
  <!-- Rear wheel -->
  <circle cx="92" cy="80" r="6.5" fill="none" stroke="white" stroke-width="2"/>
  <circle cx="92" cy="80" r="3" fill="white" opacity="0.6"/>
  
  <!-- Headlight -->
  <circle cx="22" cy="68" r="2.5" fill="white" opacity="0.8"/>
</svg>